<?xml version="1.0" encoding="UTF-8"?>
<svg id="Camada_2" data-name="Camada 2" xmlns="http://www.w3.org/2000/svg" viewBox="0 0 881.9 367.83">
  <defs>
    <style>
      .cls-1 {
        fill: #f7572d;
      }

      .cls-2 {
        fill: #0b1a23;
      }
    </style>
  </defs>
  <g id="Camada_1-2" data-name="Camada 1">
    <g>
      <g>
        <rect class="cls-2" x=".6" y="115.29" width="91.35" height="252.54"/>
        <path class="cls-2" d="M479.86,187.78c32.94-25.4,68.91-46.41,107.5-62.73,2.42-1.03,4.85-2.02,7.29-3.01,17.01-18.73,41.64-30.47,69-30.47h183.92c7.15-12.51,14.71-27.8,21.34-45.74,6.22-16.83,10.29-32.37,12.99-45.84h-218.25c-99.29,0-180.44,79.08-183.79,177.57.02,0,.05,0,.07,0-.13,3.39-.15,6.82-.06,10.22Z"/>
        <path class="cls-2" d="M129.98,342.48c16.7-18.47,34.8-35.68,54.13-51.39,6.44-5.24,13.03-10.3,19.74-15.2h-3.98v-23.39c0-11.86,8.97-22.06,20.53-23.53h121.94c41.25-.01,67.24-13.46,88.1-34.85,2.89-2.89,5.6-5.94,8.14-9.13,6.1-7.65,11.19-16.12,15.17-25.27,6.29-14.28,9.47-29.46,9.47-45.12,0-63.07-51.35-114.6-114.42-114.6h-214.5l-24.8,91.58h239.34c12.97,0,23.53,10.7,23.53,23.94,0,12.07-8.98,21.64-20.99,23.09h-132.4c-44.32,1.63-83.96,29.05-101.04,69.87-6.24,14.25-9.41,29.38-9.41,44.98v114.37h.02c4.35-5.51,8.83-10.92,13.41-16.24,2.64-3.07,5.3-6.11,8.01-9.11Z"/>
      </g>
      <g>
        <circle class="cls-1" cx="45.98" cy="46" r="45.98"/>
        <path class="cls-1" d="M846.36,275.84h-187.48c-38.29-1.46-70.71-25.54-83.49-59.59h.1c-3.81-10.14-5.9-21.1-5.9-32.55,0-2.49.1-4.95.3-7.4.19-2.36.48-4.71.83-7.05.74-4.61,1.84-9.09,3.23-13.43-33.3,15.82-64.46,35.43-92.93,58.27,14.43,87.11,90.28,153.76,181.43,153.76h218.25c-2.31-13.62-6.21-30.09-12.99-48.14-6.61-17.6-14.29-32.26-21.34-43.86Z"/>
        <path class="cls-1" d="M481.66,275.89H203.85c-6.71,4.9-13.29,9.97-19.74,15.2-19.33,15.71-37.43,32.92-54.13,51.39-2.71,3-5.38,6.05-8.01,9.11-4.58,5.32-9.06,10.73-13.41,16.24h462.98c-.08-.04-.16-.09-.25-.14-39.77-18.84-71.72-51.53-89.64-91.81Z"/>
      </g>
    </g>
  </g>
</svg>